<svg xmlns="http://www.w3.org/2000/svg" xmlns:xlink="http://www.w3.org/1999/xlink" width="500" zoomAndPan="magnify" viewBox="0 0 375 374.999991" height="500" preserveAspectRatio="xMidYMid meet" version="1.0"><defs><clipPath id="f3641246e7"><path d="M 8.4375 0 L 366.9375 0 L 366.9375 375 L 8.4375 375 Z M 8.4375 0 " clip-rule="nonzero"/></clipPath></defs><g clip-path="url(#f3641246e7)"><path fill="#000000" d="M 302.179688 37.515625 L 284.753906 37.515625 L 284.753906 11.519531 C 284.753906 5.265625 279.660156 0.222656 273.445312 0.222656 C 267.183594 0.222656 262.140625 5.308594 262.140625 11.519531 L 262.140625 37.5625 L 106.742188 37.5625 L 106.742188 11.519531 C 106.742188 5.265625 101.648438 0.222656 95.433594 0.222656 C 89.171875 0.222656 84.128906 5.308594 84.128906 11.519531 L 84.128906 37.5625 L 73.148438 37.5625 C 37.40625 37.5625 8.4375 66.5 8.4375 102.203125 L 8.4375 310.132812 C 8.4375 345.839844 37.40625 374.777344 73.148438 374.777344 L 302.179688 374.777344 C 337.921875 374.777344 366.890625 345.839844 366.890625 310.132812 L 366.890625 102.203125 C 366.9375 66.5 337.921875 37.515625 302.179688 37.515625 Z M 262.09375 49.464844 L 262.09375 72.941406 C 262.09375 79.195312 267.183594 84.234375 273.398438 84.234375 C 279.660156 84.234375 284.707031 79.148438 284.707031 72.941406 L 284.707031 50.351562 C 291.949219 54.550781 296.855469 62.390625 296.855469 71.351562 C 296.855469 84.75 285.96875 95.625 272.558594 95.625 C 259.148438 95.625 248.261719 84.75 248.261719 71.351562 C 248.355469 61.691406 253.964844 53.382812 262.09375 49.464844 Z M 84.082031 49.882812 L 84.082031 72.941406 C 84.082031 79.195312 89.171875 84.234375 95.386719 84.234375 C 101.648438 84.234375 106.695312 79.148438 106.695312 72.941406 L 106.695312 49.882812 C 114.402344 53.945312 119.636719 62.019531 119.636719 71.304688 C 119.636719 84.703125 108.75 95.578125 95.339844 95.578125 C 81.933594 95.578125 71.046875 84.703125 71.046875 71.304688 C 71.140625 62.019531 76.417969 53.945312 84.082031 49.882812 Z M 344.277344 310.085938 C 344.277344 333.285156 325.402344 352.09375 302.226562 352.09375 L 73.148438 352.09375 C 49.925781 352.09375 31.097656 333.238281 31.097656 310.085938 L 31.097656 137.863281 L 344.277344 137.863281 Z M 344.277344 310.085938 " fill-opacity="1" fill-rule="nonzero"/></g><path fill="#000000" d="M 107.066406 203.066406 L 75.71875 203.066406 C 73.195312 203.066406 71.140625 201.011719 71.140625 198.492188 L 71.140625 167.171875 C 71.140625 164.652344 73.195312 162.601562 75.71875 162.601562 L 107.066406 162.601562 C 109.589844 162.601562 111.648438 164.652344 111.648438 167.171875 L 111.648438 198.492188 C 111.601562 201.011719 109.589844 203.066406 107.066406 203.066406 Z M 107.066406 203.066406 " fill-opacity="1" fill-rule="nonzero"/><path fill="#000000" d="M 107.066406 267.289062 L 75.71875 267.289062 C 73.195312 267.289062 71.140625 265.234375 71.140625 262.714844 L 71.140625 231.394531 C 71.140625 228.875 73.195312 226.824219 75.71875 226.824219 L 107.066406 226.824219 C 109.589844 226.824219 111.648438 228.875 111.648438 231.394531 L 111.648438 262.714844 C 111.601562 265.28125 109.589844 267.289062 107.066406 267.289062 Z M 107.066406 267.289062 " fill-opacity="1" fill-rule="nonzero"/><path fill="#000000" d="M 107.066406 331.558594 L 75.71875 331.558594 C 73.195312 331.558594 71.140625 329.503906 71.140625 326.984375 L 71.140625 295.664062 C 71.140625 293.144531 73.195312 291.089844 75.71875 291.089844 L 107.066406 291.089844 C 109.589844 291.089844 111.648438 293.144531 111.648438 295.664062 L 111.648438 327.03125 C 111.601562 329.503906 109.589844 331.558594 107.066406 331.558594 Z M 107.066406 331.558594 " fill-opacity="1" fill-rule="nonzero"/><path fill="#000000" d="M 171.359375 203.066406 L 140.007812 203.066406 C 137.484375 203.066406 135.429688 201.011719 135.429688 198.492188 L 135.429688 167.171875 C 135.429688 164.652344 137.484375 162.601562 140.007812 162.601562 L 171.359375 162.601562 C 173.882812 162.601562 175.9375 164.652344 175.9375 167.171875 L 175.9375 198.492188 C 175.9375 201.011719 173.882812 203.066406 171.359375 203.066406 Z M 171.359375 203.066406 " fill-opacity="1" fill-rule="nonzero"/><path fill="#000000" d="M 171.359375 267.289062 L 140.007812 267.289062 C 137.484375 267.289062 135.429688 265.234375 135.429688 262.714844 L 135.429688 231.394531 C 135.429688 228.875 137.484375 226.824219 140.007812 226.824219 L 171.359375 226.824219 C 173.882812 226.824219 175.9375 228.875 175.9375 231.394531 L 175.9375 262.714844 C 175.9375 265.28125 173.882812 267.289062 171.359375 267.289062 Z M 171.359375 267.289062 " fill-opacity="1" fill-rule="nonzero"/><path fill="#000000" d="M 171.359375 331.558594 L 140.007812 331.558594 C 137.484375 331.558594 135.429688 329.503906 135.429688 326.984375 L 135.429688 295.664062 C 135.429688 293.144531 137.484375 291.089844 140.007812 291.089844 L 171.359375 291.089844 C 173.882812 291.089844 175.9375 293.144531 175.9375 295.664062 L 175.9375 327.03125 C 175.9375 329.503906 173.882812 331.558594 171.359375 331.558594 Z M 171.359375 331.558594 " fill-opacity="1" fill-rule="nonzero"/><path fill="#000000" d="M 235.695312 203.066406 L 204.34375 203.066406 C 201.820312 203.066406 199.765625 201.011719 199.765625 198.492188 L 199.765625 167.171875 C 199.765625 164.652344 201.820312 162.601562 204.34375 162.601562 L 235.695312 162.601562 C 238.21875 162.601562 240.273438 164.652344 240.273438 167.171875 L 240.273438 198.492188 C 240.226562 201.011719 238.21875 203.066406 235.695312 203.066406 Z M 235.695312 203.066406 " fill-opacity="1" fill-rule="nonzero"/><path fill="#000000" d="M 235.695312 267.289062 L 204.34375 267.289062 C 201.820312 267.289062 199.765625 265.234375 199.765625 262.714844 L 199.765625 231.394531 C 199.765625 228.875 201.820312 226.824219 204.34375 226.824219 L 235.695312 226.824219 C 238.21875 226.824219 240.273438 228.875 240.273438 231.394531 L 240.273438 262.714844 C 240.226562 265.28125 238.21875 267.289062 235.695312 267.289062 Z M 235.695312 267.289062 " fill-opacity="1" fill-rule="nonzero"/><path fill="#000000" d="M 235.695312 331.558594 L 204.34375 331.558594 C 201.820312 331.558594 199.765625 329.503906 199.765625 326.984375 L 199.765625 295.664062 C 199.765625 293.144531 201.820312 291.089844 204.34375 291.089844 L 235.695312 291.089844 C 238.21875 291.089844 240.273438 293.144531 240.273438 295.664062 L 240.273438 327.03125 C 240.226562 329.503906 238.21875 331.558594 235.695312 331.558594 Z M 235.695312 331.558594 " fill-opacity="1" fill-rule="nonzero"/><path fill="#000000" d="M 300.03125 203.066406 L 268.679688 203.066406 C 266.15625 203.066406 264.101562 201.011719 264.101562 198.492188 L 264.101562 167.171875 C 264.101562 164.652344 266.15625 162.601562 268.679688 162.601562 L 300.03125 162.601562 C 302.554688 162.601562 304.609375 164.652344 304.609375 167.171875 L 304.609375 198.492188 C 304.5625 201.011719 302.507812 203.066406 300.03125 203.066406 Z M 300.03125 203.066406 " fill-opacity="1" fill-rule="nonzero"/><path fill="#000000" d="M 300.03125 267.289062 L 268.679688 267.289062 C 266.15625 267.289062 264.101562 265.234375 264.101562 262.714844 L 264.101562 231.394531 C 264.101562 228.875 266.15625 226.824219 268.679688 226.824219 L 300.03125 226.824219 C 302.554688 226.824219 304.609375 228.875 304.609375 231.394531 L 304.609375 262.714844 C 304.5625 265.28125 302.507812 267.289062 300.03125 267.289062 Z M 300.03125 267.289062 " fill-opacity="1" fill-rule="nonzero"/></svg>