<svg xmlns="http://www.w3.org/2000/svg" xmlns:xlink="http://www.w3.org/1999/xlink" width="500" zoomAndPan="magnify" viewBox="0 0 375 374.999991" height="500" preserveAspectRatio="xMidYMid meet" version="1.0"><defs><clipPath id="c5e255d2a5"><path d="M 199 159 L 359.484375 159 L 359.484375 375 L 199 375 Z M 199 159 " clip-rule="nonzero"/></clipPath><clipPath id="df2b0bb125"><path d="M 15.234375 0 L 287 0 L 287 348 L 15.234375 348 Z M 15.234375 0 " clip-rule="nonzero"/></clipPath></defs><path fill="#373435" d="M 340.5 228.515625 L 218.847656 228.515625 C 216.5 228.515625 214.597656 226.613281 214.597656 224.265625 L 214.597656 185.664062 C 214.597656 183.316406 216.5 181.414062 218.847656 181.414062 L 340.5 181.414062 C 342.847656 181.414062 344.746094 183.316406 344.746094 185.664062 L 344.746094 224.265625 C 344.75 226.613281 342.847656 228.515625 340.5 228.515625 Z M 223.09375 220.015625 L 336.253906 220.015625 L 336.253906 189.914062 L 223.09375 189.914062 Z M 223.09375 220.015625 " fill-opacity="1" fill-rule="nonzero"/><g clip-path="url(#c5e255d2a5)"><path fill="#000000" d="M 342.921875 374.710938 L 216.425781 374.710938 C 207.285156 374.710938 199.847656 367.265625 199.847656 358.121094 L 199.847656 176.046875 C 199.847656 166.898438 207.285156 159.457031 216.425781 159.457031 L 342.921875 159.457031 C 352.0625 159.457031 359.5 166.898438 359.5 176.046875 L 359.5 358.121094 C 359.5 367.265625 352.0625 374.710938 342.921875 374.710938 Z M 216.425781 167.960938 C 211.96875 167.960938 208.34375 171.589844 208.34375 176.046875 L 208.34375 358.121094 C 208.34375 362.582031 211.96875 366.210938 216.425781 366.210938 L 342.921875 366.210938 C 347.378906 366.210938 351.007812 362.582031 351.007812 358.121094 L 351.007812 176.046875 C 351.007812 171.585938 347.378906 167.960938 342.921875 167.960938 Z M 216.425781 167.960938 " fill-opacity="1" fill-rule="nonzero"/></g><path fill="#000000" d="M 340.5 294.199219 L 322.496094 294.199219 C 320.152344 294.199219 318.25 292.296875 318.25 289.949219 L 318.25 271.929688 C 318.25 269.582031 320.152344 267.679688 322.496094 267.679688 L 340.5 267.679688 C 342.847656 267.679688 344.75 269.582031 344.75 271.929688 L 344.75 289.949219 C 344.75 292.296875 342.847656 294.199219 340.5 294.199219 Z M 326.742188 285.699219 L 336.253906 285.699219 L 336.253906 276.179688 L 326.742188 276.179688 Z M 326.742188 285.699219 " fill-opacity="1" fill-rule="nonzero"/><path fill="#000000" d="M 340.5 359.886719 L 322.496094 359.886719 C 320.152344 359.886719 318.25 357.984375 318.25 355.636719 L 318.25 304.773438 C 318.25 302.425781 320.152344 300.523438 322.496094 300.523438 L 340.5 300.523438 C 342.847656 300.523438 344.75 302.425781 344.75 304.773438 L 344.75 355.636719 C 344.75 357.984375 342.847656 359.886719 340.5 359.886719 Z M 326.742188 351.386719 L 336.253906 351.386719 L 336.253906 309.023438 L 326.742188 309.023438 Z M 326.742188 351.386719 " fill-opacity="1" fill-rule="nonzero"/><path fill="#000000" d="M 305.617188 294.199219 L 287.613281 294.199219 C 285.265625 294.199219 283.367188 292.296875 283.367188 289.949219 L 283.367188 271.929688 C 283.367188 269.582031 285.265625 267.679688 287.613281 267.679688 L 305.617188 267.679688 C 307.964844 267.679688 309.863281 269.582031 309.863281 271.929688 L 309.863281 289.949219 C 309.863281 292.296875 307.964844 294.199219 305.617188 294.199219 Z M 291.859375 285.699219 L 301.371094 285.699219 L 301.371094 276.179688 L 291.859375 276.179688 Z M 291.859375 285.699219 " fill-opacity="1" fill-rule="nonzero"/><path fill="#000000" d="M 305.617188 327.042969 L 287.613281 327.042969 C 285.265625 327.042969 283.367188 325.140625 283.367188 322.792969 L 283.367188 304.773438 C 283.367188 302.425781 285.265625 300.523438 287.613281 300.523438 L 305.617188 300.523438 C 307.964844 300.523438 309.863281 302.425781 309.863281 304.773438 L 309.863281 322.792969 C 309.863281 325.140625 307.964844 327.042969 305.617188 327.042969 Z M 291.859375 318.542969 L 301.371094 318.542969 L 301.371094 309.023438 L 291.859375 309.023438 Z M 291.859375 318.542969 " fill-opacity="1" fill-rule="nonzero"/><path fill="#000000" d="M 305.617188 359.886719 L 252.730469 359.886719 C 250.382812 359.886719 248.484375 357.984375 248.484375 355.636719 L 248.484375 337.617188 C 248.484375 335.269531 250.382812 333.367188 252.730469 333.367188 L 305.617188 333.367188 C 307.964844 333.367188 309.863281 335.269531 309.863281 337.617188 L 309.863281 355.636719 C 309.863281 357.984375 307.964844 359.886719 305.617188 359.886719 Z M 256.976562 351.386719 L 301.371094 351.386719 L 301.371094 341.867188 L 256.976562 341.867188 Z M 256.976562 351.386719 " fill-opacity="1" fill-rule="nonzero"/><path fill="#000000" d="M 270.734375 294.199219 L 252.730469 294.199219 C 250.386719 294.199219 248.484375 292.296875 248.484375 289.949219 L 248.484375 271.929688 C 248.484375 269.582031 250.386719 267.679688 252.730469 267.679688 L 270.734375 267.679688 C 273.082031 267.679688 274.980469 269.582031 274.980469 271.929688 L 274.980469 289.949219 C 274.980469 292.296875 273.082031 294.199219 270.734375 294.199219 Z M 256.976562 285.699219 L 266.488281 285.699219 L 266.488281 276.179688 L 256.976562 276.179688 Z M 256.976562 285.699219 " fill-opacity="1" fill-rule="nonzero"/><path fill="#000000" d="M 270.734375 327.042969 L 252.730469 327.042969 C 250.386719 327.042969 248.484375 325.140625 248.484375 322.792969 L 248.484375 304.773438 C 248.484375 302.425781 250.386719 300.523438 252.730469 300.523438 L 270.734375 300.523438 C 273.082031 300.523438 274.980469 302.425781 274.980469 304.773438 L 274.980469 322.792969 C 274.980469 325.140625 273.082031 327.042969 270.734375 327.042969 Z M 256.976562 318.542969 L 266.488281 318.542969 L 266.488281 309.023438 L 256.976562 309.023438 Z M 256.976562 318.542969 " fill-opacity="1" fill-rule="nonzero"/><path fill="#000000" d="M 249.355469 261.359375 L 217.847656 261.359375 C 215.5 261.359375 213.601562 259.457031 213.601562 257.109375 L 213.601562 239.085938 C 213.601562 236.738281 215.5 234.835938 217.847656 234.835938 L 249.355469 234.835938 C 251.703125 234.835938 253.601562 236.738281 253.601562 239.085938 L 253.601562 257.109375 C 253.601562 259.453125 251.703125 261.359375 249.355469 261.359375 Z M 222.09375 252.855469 L 245.109375 252.855469 L 245.109375 243.339844 L 222.09375 243.339844 Z M 222.09375 252.855469 " fill-opacity="1" fill-rule="nonzero"/><path fill="#000000" d="M 235.851562 294.199219 L 217.847656 294.199219 C 215.5 294.199219 213.601562 292.296875 213.601562 289.949219 L 213.601562 271.929688 C 213.601562 269.582031 215.5 267.679688 217.847656 267.679688 L 235.851562 267.679688 C 238.199219 267.679688 240.097656 269.582031 240.097656 271.929688 L 240.097656 289.949219 C 240.097656 292.296875 238.199219 294.199219 235.851562 294.199219 Z M 222.09375 285.699219 L 231.605469 285.699219 L 231.605469 276.179688 L 222.09375 276.179688 Z M 222.09375 285.699219 " fill-opacity="1" fill-rule="nonzero"/><path fill="#000000" d="M 235.851562 327.042969 L 217.847656 327.042969 C 215.5 327.042969 213.601562 325.140625 213.601562 322.792969 L 213.601562 304.773438 C 213.601562 302.425781 215.5 300.523438 217.847656 300.523438 L 235.851562 300.523438 C 238.199219 300.523438 240.097656 302.425781 240.097656 304.773438 L 240.097656 322.792969 C 240.097656 325.140625 238.199219 327.042969 235.851562 327.042969 Z M 222.09375 318.542969 L 231.605469 318.542969 L 231.605469 309.023438 L 222.09375 309.023438 Z M 222.09375 318.542969 " fill-opacity="1" fill-rule="nonzero"/><path fill="#000000" d="M 235.851562 359.886719 L 217.847656 359.886719 C 215.5 359.886719 213.601562 357.984375 213.601562 355.636719 L 213.601562 337.617188 C 213.601562 335.269531 215.5 333.367188 217.847656 333.367188 L 235.851562 333.367188 C 238.199219 333.367188 240.097656 335.269531 240.097656 337.617188 L 240.097656 355.636719 C 240.097656 357.984375 238.199219 359.886719 235.851562 359.886719 Z M 222.09375 351.386719 L 231.605469 351.386719 L 231.605469 341.867188 L 222.09375 341.867188 Z M 222.09375 351.386719 " fill-opacity="1" fill-rule="nonzero"/><path fill="#000000" d="M 340.5 261.359375 L 308.992188 261.359375 C 306.644531 261.359375 304.746094 259.457031 304.746094 257.109375 L 304.746094 239.085938 C 304.746094 236.738281 306.644531 234.835938 308.992188 234.835938 L 340.5 234.835938 C 342.847656 234.835938 344.75 236.738281 344.75 239.085938 L 344.75 257.109375 C 344.75 259.453125 342.847656 261.359375 340.5 261.359375 Z M 313.238281 252.855469 L 336.253906 252.855469 L 336.253906 243.339844 L 313.238281 243.339844 Z M 313.238281 252.855469 " fill-opacity="1" fill-rule="nonzero"/><path fill="#000000" d="M 295.429688 261.359375 L 263.917969 261.359375 C 261.574219 261.359375 259.671875 259.457031 259.671875 257.109375 L 259.671875 239.085938 C 259.671875 236.738281 261.574219 234.835938 263.917969 234.835938 L 295.429688 234.835938 C 297.773438 234.835938 299.675781 236.738281 299.675781 239.085938 L 299.675781 257.109375 C 299.675781 259.453125 297.773438 261.359375 295.429688 261.359375 Z M 268.167969 252.855469 L 291.183594 252.855469 L 291.183594 243.339844 L 268.167969 243.339844 Z M 268.167969 252.855469 " fill-opacity="1" fill-rule="nonzero"/><g clip-path="url(#df2b0bb125)"><path fill="#000000" d="M 204.097656 347.714844 L 51.632812 347.714844 C 31.5625 347.714844 15.238281 331.375 15.238281 311.289062 L 15.238281 37.035156 C 15.238281 16.953125 31.5625 0.613281 51.632812 0.613281 L 222.328125 0.613281 C 224.671875 0.613281 226.574219 2.515625 226.574219 4.863281 C 226.574219 7.210938 224.671875 9.113281 222.328125 9.113281 L 51.632812 9.113281 C 36.246094 9.113281 23.730469 21.640625 23.730469 37.035156 L 23.730469 311.292969 C 23.730469 326.6875 36.246094 339.214844 51.632812 339.214844 L 204.097656 339.214844 C 206.441406 339.214844 208.34375 341.117188 208.34375 343.464844 C 208.34375 345.8125 206.441406 347.714844 204.097656 347.714844 Z M 282.230469 167.960938 C 279.886719 167.960938 277.984375 166.054688 277.984375 163.710938 L 277.984375 64.816406 C 277.984375 62.46875 279.886719 60.566406 282.230469 60.566406 C 284.578125 60.566406 286.476562 62.46875 286.476562 64.816406 L 286.476562 163.710938 C 286.476562 166.054688 284.578125 167.960938 282.230469 167.960938 Z M 282.230469 167.960938 " fill-opacity="1" fill-rule="nonzero"/></g><path fill="#000000" d="M 282.230469 69.066406 L 238.148438 69.066406 C 227.082031 69.066406 218.082031 60.058594 218.082031 48.984375 L 218.082031 4.863281 C 218.082031 3.144531 219.117188 1.59375 220.703125 0.9375 C 222.289062 0.28125 224.117188 0.640625 225.332031 1.859375 L 285.234375 61.808594 C 286.449219 63.027344 286.8125 64.855469 286.15625 66.441406 C 285.5 68.03125 283.949219 69.066406 282.230469 69.066406 Z M 226.574219 15.125 L 226.574219 48.984375 C 226.574219 55.371094 231.765625 60.566406 238.148438 60.566406 L 271.980469 60.566406 Z M 226.574219 15.125 " fill-opacity="1" fill-rule="nonzero"/><path fill="#000000" d="M 247.226562 108.726562 L 183.867188 108.726562 C 181.523438 108.726562 179.621094 106.824219 179.621094 104.476562 C 179.621094 102.128906 181.523438 100.226562 183.867188 100.226562 L 247.226562 100.226562 C 249.574219 100.226562 251.476562 102.128906 251.476562 104.476562 C 251.476562 106.824219 249.574219 108.726562 247.226562 108.726562 Z M 247.226562 108.726562 " fill-opacity="1" fill-rule="nonzero"/><path fill="#000000" d="M 247.226562 148.59375 L 172.234375 148.59375 C 169.890625 148.59375 167.988281 146.6875 167.988281 144.34375 C 167.988281 141.996094 169.890625 140.09375 172.234375 140.09375 L 247.226562 140.09375 C 249.574219 140.09375 251.476562 141.996094 251.476562 144.34375 C 251.476562 146.6875 249.574219 148.59375 247.226562 148.59375 Z M 247.226562 148.59375 " fill-opacity="1" fill-rule="nonzero"/><path fill="#000000" d="M 204.097656 188.457031 L 109.804688 188.457031 C 107.460938 188.457031 105.558594 186.554688 105.558594 184.207031 C 105.558594 181.859375 107.460938 179.957031 109.804688 179.957031 L 204.097656 179.957031 C 206.441406 179.957031 208.34375 181.863281 208.34375 184.207031 C 208.34375 186.554688 206.441406 188.457031 204.097656 188.457031 Z M 204.097656 188.457031 " fill-opacity="1" fill-rule="nonzero"/><path fill="#000000" d="M 204.097656 228.324219 L 109.804688 228.324219 C 107.460938 228.324219 105.558594 226.421875 105.558594 224.074219 C 105.558594 221.726562 107.460938 219.824219 109.804688 219.824219 L 204.097656 219.824219 C 206.441406 219.824219 208.34375 221.726562 208.34375 224.074219 C 208.34375 226.421875 206.441406 228.324219 204.097656 228.324219 Z M 204.097656 228.324219 " fill-opacity="1" fill-rule="nonzero"/><path fill="#000000" d="M 204.097656 268.191406 L 109.804688 268.191406 C 107.460938 268.191406 105.558594 266.289062 105.558594 263.941406 C 105.558594 261.59375 107.460938 259.691406 109.804688 259.691406 L 204.097656 259.691406 C 206.441406 259.691406 208.34375 261.59375 208.34375 263.941406 C 208.34375 266.289062 206.441406 268.191406 204.097656 268.191406 Z M 204.097656 268.191406 " fill-opacity="1" fill-rule="nonzero"/><path fill="#000000" d="M 204.097656 308.058594 L 109.804688 308.058594 C 107.460938 308.058594 105.558594 306.15625 105.558594 303.808594 C 105.558594 301.460938 107.460938 299.558594 109.804688 299.558594 L 204.097656 299.558594 C 206.441406 299.558594 208.34375 301.460938 208.34375 303.808594 C 208.34375 306.15625 206.441406 308.058594 204.097656 308.058594 Z M 204.097656 308.058594 " fill-opacity="1" fill-rule="nonzero"/><path fill="#000000" d="M 63.246094 199.664062 C 62.15625 199.664062 61.070312 199.25 60.242188 198.421875 L 51.484375 189.65625 C 49.828125 188 49.828125 185.308594 51.484375 183.648438 C 53.144531 181.988281 55.832031 181.984375 57.492188 183.648438 L 63.246094 189.402344 L 82.636719 169.996094 C 84.296875 168.335938 86.984375 168.335938 88.644531 169.996094 C 90.300781 171.65625 90.300781 174.347656 88.644531 176.007812 L 66.246094 198.417969 C 65.417969 199.25 64.332031 199.664062 63.246094 199.664062 Z M 63.246094 199.664062 " fill-opacity="1" fill-rule="nonzero"/><path fill="#000000" d="M 63.246094 279.398438 C 62.15625 279.398438 61.070312 278.984375 60.242188 278.152344 L 51.484375 269.390625 C 49.824219 267.730469 49.824219 265.039062 51.484375 263.378906 C 53.144531 261.71875 55.832031 261.71875 57.492188 263.378906 L 63.242188 269.136719 L 82.636719 249.730469 C 84.296875 248.070312 86.984375 248.070312 88.640625 249.730469 C 90.300781 251.390625 90.300781 254.082031 88.640625 255.738281 L 66.246094 278.152344 C 65.417969 278.984375 64.332031 279.398438 63.246094 279.398438 Z M 63.246094 279.398438 " fill-opacity="1" fill-rule="nonzero"/><path fill="#000000" d="M 63.246094 319.265625 C 62.15625 319.265625 61.070312 318.851562 60.242188 318.019531 L 51.484375 309.257812 C 49.824219 307.597656 49.824219 304.90625 51.484375 303.246094 C 53.144531 301.585938 55.832031 301.585938 57.492188 303.246094 L 63.242188 309.003906 L 82.636719 289.597656 C 84.292969 287.9375 86.984375 287.9375 88.640625 289.597656 C 90.300781 291.253906 90.300781 293.945312 88.640625 295.605469 L 66.246094 318.019531 C 65.417969 318.851562 64.332031 319.265625 63.246094 319.265625 Z M 63.246094 319.265625 " fill-opacity="1" fill-rule="nonzero"/><path fill="#000000" d="M 63.246094 239.53125 C 62.15625 239.53125 61.070312 239.117188 60.242188 238.289062 L 51.484375 229.523438 C 49.824219 227.863281 49.824219 225.171875 51.484375 223.515625 C 53.144531 221.855469 55.832031 221.855469 57.492188 223.515625 L 63.242188 229.269531 L 82.636719 209.863281 C 84.296875 208.203125 86.984375 208.203125 88.640625 209.863281 C 90.300781 211.523438 90.300781 214.214844 88.640625 215.875 L 66.246094 238.285156 C 65.417969 239.117188 64.332031 239.53125 63.246094 239.53125 Z M 63.246094 239.53125 " fill-opacity="1" fill-rule="nonzero"/><path fill="#000000" d="M 108.429688 150.398438 C 76.34375 150.398438 50.242188 124.273438 50.242188 92.164062 C 50.242188 60.050781 76.34375 33.929688 108.429688 33.929688 C 140.515625 33.929688 166.617188 60.050781 166.617188 92.164062 C 166.617188 124.273438 140.515625 150.398438 108.429688 150.398438 Z M 108.429688 42.429688 C 81.027344 42.429688 58.734375 64.738281 58.734375 92.164062 C 58.734375 119.585938 81.027344 141.898438 108.429688 141.898438 C 135.832031 141.898438 158.125 119.585938 158.125 92.164062 C 158.125 64.738281 135.832031 42.429688 108.429688 42.429688 Z M 108.429688 42.429688 " fill-opacity="1" fill-rule="nonzero"/><path fill="#000000" d="M 109.015625 69.523438 C 106.667969 69.523438 104.765625 67.621094 104.765625 65.273438 L 104.765625 55.703125 C 104.765625 53.355469 106.667969 51.453125 109.015625 51.453125 C 111.359375 51.453125 113.261719 53.355469 113.261719 55.703125 L 113.261719 65.273438 C 113.261719 67.621094 111.359375 69.523438 109.015625 69.523438 Z M 109.015625 69.523438 " fill-opacity="1" fill-rule="nonzero"/><path fill="#000000" d="M 107.84375 132.875 C 105.496094 132.875 103.597656 130.96875 103.597656 128.621094 L 103.597656 119.054688 C 103.597656 116.707031 105.496094 114.804688 107.84375 114.804688 C 110.1875 114.804688 112.089844 116.707031 112.089844 119.054688 L 112.089844 128.621094 C 112.089844 130.96875 110.1875 132.875 107.84375 132.875 Z M 107.84375 132.875 " fill-opacity="1" fill-rule="nonzero"/><path fill="#000000" d="M 107.070312 123.320312 C 106.746094 123.320312 106.421875 123.3125 106.101562 123.296875 C 98.796875 122.929688 90.3125 117.992188 90.433594 105.28125 C 90.457031 102.945312 92.351562 101.070312 94.679688 101.070312 C 94.695312 101.070312 94.707031 101.070312 94.722656 101.070312 C 97.066406 101.09375 98.949219 103.015625 98.925781 105.363281 C 98.855469 112.847656 103.019531 114.628906 106.527344 114.808594 C 111.792969 115.066406 117.089844 111.742188 117.4375 107.953125 C 117.441406 107.898438 117.445312 107.839844 117.453125 107.785156 C 118.382812 100.683594 109.023438 96.695312 106.132812 95.644531 C 93.882812 91.1875 88.832031 84.460938 91.125 75.65625 C 94.132812 64.117188 103.820312 60.082031 111.558594 61.214844 C 120.640625 62.546875 126.75 70.023438 126.410156 79.402344 C 126.328125 81.746094 124.335938 83.578125 122.015625 83.496094 C 119.671875 83.410156 117.839844 81.441406 117.925781 79.09375 C 118.144531 72.960938 113.96875 70.160156 110.324219 69.625 C 106.394531 69.050781 101.15625 70.84375 99.34375 77.800781 C 98.5625 80.804688 99.195312 84.074219 109.035156 87.65625 C 113.421875 89.253906 127.570312 95.488281 125.886719 108.808594 C 125.023438 117.695312 115.671875 123.320312 107.070312 123.320312 Z M 107.070312 123.320312 " fill-opacity="1" fill-rule="nonzero"/></svg>