<svg xmlns="http://www.w3.org/2000/svg" xmlns:xlink="http://www.w3.org/1999/xlink" width="500" zoomAndPan="magnify" viewBox="0 0 375 374.999991" height="500" preserveAspectRatio="xMidYMid meet" version="1.0"><path fill="#000000" d="M 259.75 264.835938 C 265.3125 271.832031 258.625 279.578125 255.4375 282.515625 C 251.3125 286.449219 246 289.636719 239.5 292.074219 C 236.1875 293.324219 233.5625 294.070312 231.0625 294.382812 L 229.5625 294.570312 C 223.1875 295.257812 216 294.632812 207.5625 292.761719 C 190.875 289.199219 175.375 279.078125 160.125 261.902344 C 157.8125 259.652344 140.4375 242.222656 129.3125 217.671875 C 118.125 192.746094 116.75 168.382812 116.625 165.699219 C 113.875 142.273438 116.6875 123.96875 124.9375 109.164062 C 129.5 101.042969 134.25 94.859375 139.375 90.484375 C 141.1875 88.863281 143.5625 87.363281 146.75 85.675781 C 152.6875 82.675781 158.5 80.804688 163.9375 80.242188 C 167.375 79.929688 178.9375 79.617188 180.4375 88.675781 L 181.9375 104.292969 C 182.625 111.226562 184.125 128.78125 184.125 128.78125 C 185.25 139.898438 183.9375 145.769531 173.125 147.269531 C 172.3125 147.332031 171.5 147.207031 170.5 147.207031 C 168.0625 146.957031 165.875 146.832031 163.9375 146.832031 L 156.0625 146.894531 L 156.25 154.765625 C 156.4375 163.574219 159.5625 186.25 166.25 201.179688 C 172.4375 214.925781 186.75 232.476562 194.3125 239.410156 L 200.125 244.722656 L 205.375 238.785156 C 206.5625 237.414062 207.875 235.726562 208.625 234.726562 C 209.9375 232.976562 210.5625 232.101562 211.125 231.664062 C 213.875 229.292969 216.4375 227.980469 219 227.730469 C 224 227.230469 227.75 230.855469 232.125 235.664062 Z M 375 187.875 C 375 291.511719 291.0625 375.59375 187.5 375.59375 C 83.9375 375.59375 0 291.511719 0 187.875 C 0 84.238281 83.9375 0.15625 187.5 0.15625 C 291.0625 0.15625 375 84.238281 375 187.875 Z M 346.5 187.875 C 346.5 99.980469 275.3125 28.703125 187.5 28.703125 C 99.6875 28.703125 28.5 99.980469 28.5 187.875 C 28.5 275.769531 99.6875 347.046875 187.5 347.046875 C 275.3125 347.046875 346.5 275.769531 346.5 187.875 Z M 346.5 187.875 " fill-opacity="1" fill-rule="nonzero"/></svg>