<svg xmlns="http://www.w3.org/2000/svg" xmlns:xlink="http://www.w3.org/1999/xlink" width="500" zoomAndPan="magnify" viewBox="0 0 375 374.999991" height="500" preserveAspectRatio="xMidYMid meet" version="1.0"><defs><clipPath id="85f210f2ea"><path d="M 2 88 L 184 88 L 184 308.785156 L 2 308.785156 Z M 2 88 " clip-rule="nonzero"/></clipPath></defs><path fill="#000000" d="M 113.078125 276.261719 L 113.527344 291.886719 C 113.640625 295.792969 112.578125 299.460938 110.683594 302.574219 L 120.898438 302.574219 C 122.699219 302.574219 124.164062 301.117188 124.164062 299.3125 L 124.164062 276.261719 Z M 113.078125 276.261719 " fill-opacity="1" fill-rule="nonzero"/><path fill="#000000" d="M 348.09375 276.261719 L 329.394531 276.261719 L 329.394531 299.3125 C 329.394531 301.117188 330.859375 302.574219 332.660156 302.574219 L 362.433594 302.574219 C 364.238281 302.574219 365.699219 301.117188 365.699219 299.3125 L 365.699219 270.515625 C 360.613281 274.238281 354.488281 276.261719 348.09375 276.261719 Z M 348.09375 276.261719 " fill-opacity="1" fill-rule="nonzero"/><path fill="#000000" d="M 180.707031 153.539062 L 180.34375 153.539062 L 180.359375 152.773438 C 180.207031 152.34375 180.121094 151.890625 180.121094 151.414062 C 180.121094 151.332031 180.132812 151.25 180.136719 151.164062 L 178.082031 151.164062 L 180.484375 146.734375 L 180.535156 144.148438 L 176.734375 151.164062 L 173.511719 151.164062 L 180.664062 137.964844 L 180.71875 135.378906 L 172.160156 151.164062 L 168.941406 151.164062 L 177.179688 135.964844 C 176.984375 136.007812 176.792969 136.066406 176.59375 136.101562 L 175.664062 136.273438 L 167.589844 151.164062 L 164.367188 151.164062 L 172.082031 136.933594 L 170.585938 137.210938 L 163.019531 151.164062 L 159.796875 151.164062 L 167.003906 137.867188 L 165.507812 138.144531 L 158.449219 151.164062 L 155.226562 151.164062 L 161.925781 138.804688 L 160.429688 139.078125 L 153.878906 151.164062 L 150.65625 151.164062 L 156.847656 139.738281 L 155.351562 140.015625 L 149.304688 151.167969 L 146.082031 151.167969 L 151.769531 140.671875 L 150.273438 140.949219 L 144.734375 151.164062 L 141.511719 151.164062 L 146.691406 141.609375 L 145.195312 141.882812 L 140.164062 151.164062 L 136.941406 151.164062 L 141.613281 142.542969 L 140.117188 142.820312 L 135.59375 151.164062 L 132.371094 151.164062 L 136.535156 143.480469 L 135.039062 143.753906 L 131.019531 151.164062 L 127.800781 151.164062 L 131.460938 144.414062 L 129.960938 144.691406 L 126.449219 151.164062 L 123.226562 151.164062 L 126.378906 145.347656 L 124.882812 145.625 L 121.878906 151.164062 L 118.65625 151.164062 L 121.554688 145.816406 C 121.125 145.796875 120.695312 145.761719 120.269531 145.699219 L 117.308594 151.164062 L 116.484375 151.164062 C 115.703125 151.164062 114.992188 150.960938 114.382812 150.613281 L 117.425781 145 C 117.050781 144.867188 116.691406 144.699219 116.332031 144.53125 L 113.433594 149.875 C 112.214844 148.613281 111.796875 146.625 112.757812 144.878906 L 113.664062 143.222656 L 110.277344 141.519531 L 104.015625 152.898438 C 103.710938 153.453125 103.929688 153.9375 104.035156 154.117188 C 104.144531 154.300781 104.460938 154.722656 105.097656 154.722656 L 181.675781 154.722656 C 181.285156 154.363281 180.957031 153.964844 180.707031 153.539062 Z M 180.707031 153.539062 " fill-opacity="1" fill-rule="nonzero"/><path fill="#000000" d="M 128.597656 116.019531 L 147.636719 81.34375 C 148.996094 78.867188 151.101562 76.957031 153.582031 75.804688 L 132.140625 115.367188 L 133.636719 115.09375 L 155.289062 75.148438 C 156.417969 74.804688 157.605469 74.605469 158.816406 74.582031 L 137.21875 114.433594 L 138.714844 114.15625 L 160.179688 74.554688 L 163.433594 74.496094 L 142.296875 113.496094 L 143.792969 113.222656 L 164.796875 74.472656 L 168.050781 74.414062 L 147.375 112.5625 L 148.871094 112.285156 L 169.414062 74.390625 L 172.667969 74.332031 L 152.453125 111.628906 L 153.949219 111.351562 L 174.027344 74.308594 L 177.28125 74.25 L 157.53125 110.691406 L 159.027344 110.417969 L 178.644531 74.226562 L 181.898438 74.167969 L 162.609375 109.757812 L 164.105469 109.480469 L 181.9375 76.578125 L 182.019531 72.679688 L 149.003906 72.679688 C 148.488281 72.679688 148.011719 72.960938 147.761719 73.414062 L 124.003906 116.582031 L 124.417969 116.789062 Z M 128.597656 116.019531 " fill-opacity="1" fill-rule="nonzero"/><path fill="#000000" d="M 209.300781 78.390625 L 244.257812 78.390625 L 244.257812 87.183594 L 209.300781 87.183594 Z M 209.300781 78.390625 " fill-opacity="1" fill-rule="nonzero"/><path fill="#000000" d="M 181.8125 82.761719 L 167.6875 108.820312 L 169.183594 108.546875 L 181.757812 85.347656 Z M 181.8125 82.761719 " fill-opacity="1" fill-rule="nonzero"/><path fill="#000000" d="M 181.628906 91.53125 L 172.726562 107.953125 C 173.160156 107.914062 173.59375 107.894531 174.027344 107.894531 C 174.054688 107.894531 174.082031 107.898438 174.105469 107.898438 L 181.574219 94.121094 Z M 181.628906 91.53125 " fill-opacity="1" fill-rule="nonzero"/><path fill="#000000" d="M 181.394531 102.890625 L 181.445312 100.300781 L 177.136719 108.25 C 177.535156 108.339844 177.929688 108.445312 178.316406 108.566406 Z M 181.394531 102.890625 " fill-opacity="1" fill-rule="nonzero"/><path fill="#000000" d="M 181.265625 109.070312 L 180.929688 109.691406 C 181.035156 109.75 181.144531 109.808594 181.25 109.867188 Z M 181.265625 109.070312 " fill-opacity="1" fill-rule="nonzero"/><path fill="#000000" d="M 184.773438 71.449219 L 183.933594 111.917969 C 185.992188 113.917969 187.460938 116.546875 188.015625 119.539062 C 188.945312 124.582031 187.066406 129.492188 183.503906 132.691406 L 183.207031 147.054688 C 184.664062 146.300781 186.550781 145.863281 188.695312 145.863281 C 190.84375 145.863281 192.730469 146.300781 194.1875 147.054688 L 192.617188 71.449219 C 192.476562 70.457031 190.785156 69.671875 188.695312 69.671875 C 186.609375 69.671875 184.914062 70.457031 184.773438 71.449219 Z M 184.773438 71.449219 " fill-opacity="1" fill-rule="nonzero"/><path fill="#000000" d="M 194.542969 151.417969 C 194.542969 149.855469 191.925781 148.589844 188.695312 148.589844 C 185.46875 148.589844 182.847656 149.855469 182.847656 151.417969 C 182.847656 152.976562 185.46875 154.242188 188.695312 154.242188 C 191.925781 154.242188 194.542969 152.976562 194.542969 151.417969 Z M 188.695312 150.117188 C 190.554688 150.117188 192.058594 150.824219 192.058594 151.699219 C 192.058594 152.570312 190.554688 153.277344 188.695312 153.277344 C 186.839844 153.277344 185.335938 152.570312 185.335938 151.699219 C 185.335938 150.824219 186.839844 150.117188 188.695312 150.117188 Z M 188.695312 150.117188 " fill-opacity="1" fill-rule="nonzero"/><path fill="#000000" d="M 81.972656 95.453125 L 86.878906 97.917969 C 93.511719 93.746094 98.261719 86.714844 99.207031 78.328125 C 100.855469 63.695312 90.320312 50.496094 75.667969 48.847656 C 61.019531 47.199219 47.804688 57.726562 46.15625 72.359375 C 45.539062 77.847656 46.632812 83.128906 49.015625 87.679688 L 77.046875 94.011719 C 78.769531 94.191406 80.425781 94.675781 81.972656 95.453125 Z M 81.972656 95.453125 " fill-opacity="1" fill-rule="nonzero"/><path fill="#000000" d="M 123.078125 116.113281 C 124.117188 114.511719 124.664062 112.59375 124.585938 110.605469 L 145.683594 72.269531 C 146.351562 71.0625 147.621094 70.3125 149.003906 70.3125 L 182.070312 70.3125 L 182.070312 70.234375 L 183.277344 68.765625 C 184.453125 67.625 186.378906 66.945312 188.695312 66.945312 C 190.984375 66.945312 192.890625 67.609375 194.070312 68.722656 L 195.304688 70.160156 L 195.382812 73.925781 L 226.777344 73.367188 L 294.71875 74.578125 C 299.394531 74.660156 303.671875 77.242188 305.921875 81.339844 L 340.800781 144.878906 C 342.355469 147.707031 340.304688 151.164062 337.074219 151.164062 L 197.253906 151.164062 C 197.257812 151.25 197.273438 151.332031 197.273438 151.414062 C 197.273438 151.890625 197.183594 152.34375 197.035156 152.773438 L 197.050781 153.539062 L 196.683594 153.539062 C 195.476562 155.609375 192.484375 156.96875 188.695312 156.96875 C 187.5 156.96875 186.386719 156.832031 185.378906 156.582031 L 185.378906 157.09375 L 105.097656 157.09375 C 103.808594 157.09375 102.648438 156.429688 101.992188 155.324219 C 101.339844 154.21875 101.316406 152.882812 101.9375 151.753906 L 108.15625 140.453125 L 87.640625 130.140625 L 84.597656 141.640625 L 101.871094 141.640625 L 89.558594 164.066406 C 85.046875 172.285156 82.597656 181.457031 82.34375 190.8125 L 106.699219 217.707031 C 109.820312 221.15625 111.613281 225.613281 111.75 230.261719 L 112.882812 269.609375 L 348.097656 269.609375 C 354.023438 269.609375 359.726562 267.339844 364.027344 263.265625 C 368.644531 258.894531 371.261719 252.820312 371.261719 246.46875 L 371.261719 192.386719 C 371.261719 182.484375 368.765625 172.746094 364 164.066406 L 351.6875 141.640625 L 369.011719 141.640625 C 374.929688 141.640625 374.929688 120.152344 369.011719 120.152344 L 339.890625 120.152344 L 315.65625 76.007812 C 311.492188 68.421875 303.578125 63.644531 294.914062 63.488281 L 226.777344 62.273438 L 158.644531 63.488281 C 149.980469 63.644531 142.066406 68.421875 137.902344 76.007812 L 122.179688 104.644531 C 120.550781 102.832031 118.261719 101.6875 115.785156 101.511719 C 114.910156 101.449219 114.015625 101.5 113.117188 101.691406 L 99.992188 104.511719 Z M 101.816406 179.480469 C 102.246094 172.003906 108.667969 166.296875 116.148438 166.726562 C 117.921875 166.832031 119.636719 167.292969 121.152344 168 L 152.878906 182.949219 C 156.261719 184.542969 157.710938 188.574219 156.113281 191.953125 C 154.902344 194.523438 152.273438 195.972656 149.597656 195.824219 L 114.582031 193.796875 C 107.097656 193.363281 101.382812 186.953125 101.816406 179.480469 Z M 268.773438 252.394531 C 268.773438 253.691406 267.71875 254.742188 266.421875 254.742188 L 187.136719 254.742188 C 185.839844 254.742188 184.785156 253.691406 184.785156 252.394531 L 184.785156 237.15625 C 184.785156 235.859375 185.839844 234.808594 187.136719 234.808594 L 266.421875 234.808594 C 267.71875 234.808594 268.773438 235.859375 268.773438 237.15625 Z M 350.46875 174.480469 C 353.664062 181.25 350.761719 189.332031 343.984375 192.523438 C 342.375 193.28125 340.648438 193.695312 338.976562 193.796875 L 303.960938 195.824219 C 300.226562 196.039062 297.023438 193.1875 296.808594 189.460938 C 296.640625 186.621094 298.257812 184.09375 300.679688 182.949219 L 332.40625 168 C 339.183594 164.808594 347.269531 167.707031 350.46875 174.480469 Z M 350.46875 174.480469 " fill-opacity="1" fill-rule="nonzero"/><g clip-path="url(#85f210f2ea)"><path fill="#000000" d="M 10.628906 307.082031 C 12.640625 308.011719 14.757812 308.453125 16.839844 308.453125 C 22.441406 308.453125 27.804688 305.265625 30.3125 299.851562 L 58.191406 239.609375 C 59.964844 235.769531 60.015625 231.355469 58.324219 227.480469 L 48.277344 204.421875 L 77.515625 236.714844 L 79.136719 292.875 C 79.371094 300.910156 85.960938 307.261719 93.953125 307.261719 C 94.097656 307.261719 94.246094 307.261719 94.390625 307.257812 C 102.574219 307.019531 109.019531 300.199219 108.785156 292.023438 L 107.003906 230.398438 C 106.902344 226.875 105.546875 223.503906 103.179688 220.886719 L 68.777344 182.894531 L 84.546875 123.277344 L 118.027344 140.109375 C 119.359375 140.777344 120.820312 141.121094 122.292969 141.121094 C 122.867188 141.121094 123.445312 141.070312 124.015625 140.964844 L 175.734375 131.441406 C 180.890625 130.492188 184.296875 125.546875 183.347656 120.398438 C 182.398438 115.25 177.457031 111.84375 172.292969 112.792969 L 123.710938 121.738281 L 79.839844 99.6875 C 78.699219 99.113281 77.5 98.796875 76.304688 98.703125 L 31.285156 88.535156 C 28.640625 89.558594 26.503906 91.78125 25.726562 94.726562 L 5.945312 169.511719 C 4.332031 173.167969 4.175781 177.453125 5.898438 181.402344 L 28.476562 233.210938 L 3.390625 287.417969 C -0.046875 294.84375 3.191406 303.648438 10.628906 307.082031 Z M 10.628906 307.082031 " fill-opacity="1" fill-rule="nonzero"/></g></svg>